<mxfile host="65bd71144e" modified="2020-12-10T08:22:41.648Z" agent="5.0 (Macintosh; Intel Mac OS X 10_14_6) AppleWebKit/537.36 (KHTML, like Gecko) Code/1.51.1 Chrome/83.0.4103.122 Electron/9.3.3 Safari/537.36" etag="7_75fn2S88UpUxgOxSVb" version="13.10.0" type="embed">
    <diagram id="mxkedsr__enCRsbNVsCK" name="Page-1">
        <mxGraphModel dx="688" dy="580" grid="1" gridSize="10" guides="1" tooltips="1" connect="1" arrows="1" fold="1" page="1" pageScale="1" pageWidth="827" pageHeight="1169" math="0" shadow="0">
            <root>
                <mxCell id="0"/>
                <mxCell id="1" parent="0"/>
                <mxCell id="22" value="" style="edgeStyle=orthogonalEdgeStyle;rounded=0;orthogonalLoop=1;jettySize=auto;html=1;entryX=0;entryY=0.5;entryDx=0;entryDy=0;" parent="1" source="2" target="21" edge="1">
                    <mxGeometry relative="1" as="geometry">
                        <Array as="points">
                            <mxPoint x="170" y="270"/>
                            <mxPoint x="170" y="120"/>
                        </Array>
                        <mxPoint x="260" y="120" as="targetPoint"/>
                    </mxGeometry>
                </mxCell>
                <mxCell id="2" value="User" style="shape=umlActor;verticalLabelPosition=bottom;verticalAlign=top;html=1;" parent="1" vertex="1">
                    <mxGeometry x="90" y="240" width="30" height="60" as="geometry"/>
                </mxCell>
                <mxCell id="21" value="&lt;br&gt;&lt;br&gt;ログインする" style="ellipse;whiteSpace=wrap;html=1;verticalAlign=top;" parent="1" vertex="1">
                    <mxGeometry x="270" y="80" width="200" height="80" as="geometry"/>
                </mxCell>
                <mxCell id="28" value="&lt;br&gt;&lt;br&gt;ログアウトする" style="ellipse;whiteSpace=wrap;html=1;verticalAlign=top;" parent="1" vertex="1">
                    <mxGeometry x="270" y="310" width="200" height="80" as="geometry"/>
                </mxCell>
                <mxCell id="30" value="&amp;lt;&amp;lt; precedes &amp;gt;&amp;gt;" style="endArrow=open;endSize=12;dashed=1;html=1;" parent="1" source="21" target="28" edge="1">
                    <mxGeometry width="160" relative="1" as="geometry">
                        <mxPoint x="370" y="250" as="sourcePoint"/>
                        <mxPoint x="412.7726387322007" y="46.56298795448304" as="targetPoint"/>
                    </mxGeometry>
                </mxCell>
                <mxCell id="32" value="" style="edgeStyle=orthogonalEdgeStyle;rounded=0;orthogonalLoop=1;jettySize=auto;html=1;" parent="1" source="2" target="28" edge="1">
                    <mxGeometry relative="1" as="geometry">
                        <mxPoint x="-170" y="250" as="sourcePoint"/>
                        <mxPoint x="300" y="330" as="targetPoint"/>
                        <Array as="points">
                            <mxPoint x="200" y="270"/>
                            <mxPoint x="200" y="350"/>
                        </Array>
                    </mxGeometry>
                </mxCell>
            </root>
        </mxGraphModel>
    </diagram>
</mxfile>